<?xml version="1.0" encoding="UTF-8" ?>
<!DOCTYPE svg PUBLIC "-//W3C//DTD SVG 1.1//EN" "http://www.w3.org/Graphics/SVG/1.1/DTD/svg11.dtd">
<svg width="500pt" height="247pt" viewBox="0 0 500 247" version="1.1" xmlns="http://www.w3.org/2000/svg">
<path fill="#ffffff" d=" M 0.00 0.00 L 500.00 0.00 L 500.00 247.00 L 0.00 247.00 L 0.00 0.00 Z" />
<path fill="#3aabcc" d=" M 93.81 63.03 C 117.86 49.35 141.70 35.27 165.83 21.73 L 165.36 22.84 C 164.18 25.54 162.99 28.25 161.98 31.02 C 151.24 62.20 140.35 93.33 129.58 124.49 L 129.26 123.94 C 117.43 103.88 106.09 83.54 94.13 63.56 L 93.81 63.03 Z" />
<path fill="#289caf" d=" M 161.98 31.02 C 162.99 28.25 164.18 25.54 165.36 22.84 C 165.79 49.77 165.25 76.71 165.50 103.65 C 153.59 110.70 141.53 117.50 129.58 124.49 C 140.35 93.33 151.24 62.20 161.98 31.02 Z" />
<path fill="#62cadd" d=" M 94.13 63.56 C 106.09 83.54 117.43 103.88 129.26 123.94 L 129.13 124.79 C 117.39 131.28 106.02 138.45 94.12 144.66 C 94.02 117.63 94.00 90.59 94.13 63.56 Z" />
<path fill="#050708" d=" M 319.43 81.06 C 323.47 80.40 327.52 79.77 331.57 79.13 C 331.54 88.87 331.60 98.60 331.54 108.33 C 335.42 104.63 340.50 101.75 346.04 102.13 C 352.73 102.13 358.85 106.69 361.23 112.87 C 364.23 120.50 364.23 129.19 362.01 137.02 C 360.01 144.07 354.08 149.76 346.90 151.33 C 337.77 153.27 328.23 151.78 319.43 149.00 C 319.44 126.35 319.44 103.71 319.43 81.06 Z" />
<path fill="#050708" d=" M 404.44 84.64 C 409.04 79.37 416.75 79.48 423.15 79.98 C 423.69 83.31 424.21 86.64 424.79 89.97 C 421.27 89.82 416.34 88.57 414.16 92.23 C 412.83 95.68 413.64 99.51 413.45 103.12 C 416.52 103.12 419.59 103.12 422.67 103.13 C 423.16 106.42 423.67 109.71 424.17 113.00 C 420.59 113.00 417.01 113.00 413.44 113.00 C 413.44 125.88 413.44 138.75 413.44 151.62 C 409.44 151.63 405.44 151.63 401.44 151.63 C 401.44 138.75 401.44 125.88 401.44 113.00 C 399.08 113.00 396.72 113.00 394.37 112.99 C 394.37 109.70 394.37 106.41 394.37 103.13 C 396.72 103.12 399.08 103.12 401.44 103.12 C 401.73 96.95 400.17 89.83 404.44 84.64 Z" />
<path fill="#3aabcc" d=" M 377.39 81.59 C 382.16 79.59 388.03 83.88 387.08 89.10 C 386.58 94.80 378.71 96.94 374.84 93.13 C 371.11 89.86 372.62 82.98 377.39 81.59 Z" />
<path fill="#050708" d=" M 240.50 82.38 C 244.94 82.37 249.37 82.37 253.81 82.37 C 253.80 99.25 253.84 116.12 253.80 133.00 C 253.82 138.89 251.71 145.24 246.61 148.62 C 240.17 152.95 231.92 152.70 224.56 151.64 C 223.95 147.78 223.36 143.93 222.74 140.08 C 227.04 140.89 231.71 141.74 235.91 140.02 C 239.43 138.50 240.54 134.40 240.49 130.88 C 240.52 114.71 240.49 98.55 240.50 82.38 Z" />
<path fill="#050708" d=" M 281.45 102.69 C 288.88 101.07 297.31 102.78 302.77 108.29 C 307.93 113.39 309.94 120.91 309.78 128.01 C 309.71 134.53 307.74 141.31 303.11 146.07 C 296.42 153.06 285.12 154.39 276.53 150.36 C 270.27 147.43 266.11 141.14 264.80 134.47 C 263.34 126.95 263.99 118.66 268.10 112.04 C 271.03 107.27 275.98 103.86 281.45 102.69 Z" />
<path fill="#050708" d=" M 373.81 103.12 C 377.85 103.12 381.89 103.12 385.94 103.12 C 385.94 119.29 385.94 135.46 385.94 151.63 C 381.89 151.63 377.85 151.63 373.81 151.62 C 373.81 135.46 373.81 119.29 373.81 103.12 Z" />
<path fill="#050708" d=" M 430.40 104.02 C 434.61 103.47 438.81 102.93 443.02 102.40 C 446.75 113.83 450.49 125.27 454.22 136.70 C 457.76 125.51 461.29 114.31 464.83 103.12 C 468.90 103.12 472.97 103.12 477.05 103.12 C 470.79 120.52 464.53 137.92 458.25 155.31 C 456.50 160.04 454.02 164.92 449.55 167.61 C 445.20 170.19 439.88 170.13 435.02 169.42 C 434.51 166.02 433.98 162.63 433.41 159.25 C 436.53 159.70 439.98 160.48 442.95 158.94 C 445.72 157.58 446.93 154.56 448.02 151.87 C 442.11 135.93 436.27 119.97 430.40 104.02 Z" />
<path fill="#62cadd" d=" M 23.06 103.93 C 44.40 116.22 65.70 128.59 87.03 140.90 C 89.25 142.19 91.57 143.34 93.60 144.93 L 93.68 145.31 C 70.30 158.79 46.86 172.16 23.59 185.81 L 22.91 186.20 C 23.14 158.78 22.89 131.36 23.06 103.93 Z" />
<path fill="#1e7aa7" d=" M 129.58 124.49 C 141.53 117.50 153.59 110.70 165.50 103.65 C 165.58 131.26 165.77 158.88 165.37 186.48 L 164.86 185.64 C 153.20 165.20 141.28 144.91 129.58 124.49 Z" />
<path fill="#ffffff" d=" M 283.40 112.57 C 286.99 111.29 291.33 112.17 293.95 114.99 C 296.95 118.19 297.91 122.74 297.98 126.99 C 297.99 131.30 297.31 135.97 294.42 139.36 C 290.81 143.72 283.27 143.88 279.61 139.50 C 275.79 134.93 275.44 128.48 276.27 122.83 C 276.91 118.61 279.13 114.08 283.40 112.57 Z" />
<path fill="#ffffff" d=" M 331.54 119.04 C 334.66 115.56 338.96 111.91 344.01 113.00 C 348.52 113.97 350.69 118.80 351.11 122.98 C 351.65 128.56 351.51 135.06 347.41 139.37 C 343.17 143.37 336.70 142.63 331.56 141.12 C 331.56 133.76 331.59 126.40 331.54 119.04 Z" />
<path fill="#2f86c2" d=" M 129.26 123.94 L 129.58 124.49 C 141.28 144.91 153.20 165.20 164.86 185.64 L 165.47 186.69 L 164.50 186.57 C 157.38 185.48 150.17 186.01 143.01 185.94 C 131.36 185.89 119.72 186.03 108.08 185.85 C 114.03 170.27 119.09 154.36 124.69 138.65 C 126.29 134.07 128.06 129.53 129.13 124.79 L 129.26 123.94 Z" />
<path fill="#3aabcc" d=" M 94.12 144.66 C 106.02 138.45 117.39 131.28 129.13 124.79 C 128.06 129.53 126.29 134.07 124.69 138.65 C 119.09 154.36 114.03 170.27 108.08 185.85 C 103.41 185.75 98.74 185.74 94.07 185.82 C 93.92 172.32 94.65 158.79 93.68 145.31 L 93.60 144.93 L 94.12 144.66 Z" />
<path fill="#289caf" d=" M 23.59 185.81 C 46.86 172.16 70.30 158.79 93.68 145.31 C 94.65 158.79 93.92 172.32 94.07 185.82 C 70.58 185.97 47.08 186.10 23.59 185.81 Z" />
<path fill="#1e7aa7" d=" M 22.91 186.20 L 23.59 185.81 C 47.08 186.10 70.58 185.97 94.07 185.82 C 94.31 199.12 93.90 212.42 94.28 225.72 C 99.42 212.62 103.11 199.01 108.08 185.85 C 119.72 186.03 131.36 185.89 143.01 185.94 C 150.17 186.01 157.38 185.48 164.50 186.57 C 141.76 199.90 118.85 212.93 96.06 226.19 C 94.82 227.15 93.29 227.23 92.05 226.21 C 69.04 212.82 45.82 199.76 22.91 186.20 Z" />
<path fill="#0082cb" d=" M 94.07 185.82 C 98.74 185.74 103.41 185.75 108.08 185.85 C 103.11 199.01 99.42 212.62 94.28 225.72 C 93.90 212.42 94.31 199.12 94.07 185.82 Z" />
</svg>
